<?xml version="1.0" encoding="utf-8"?>
<!-- Generator: Adobe Illustrator 22.1.0, SVG Export Plug-In . SVG Version: 6.00 Build 0)  -->
<svg version="1.1" id="Layer_1" xmlns="http://www.w3.org/2000/svg" xmlns:xlink="http://www.w3.org/1999/xlink" x="0px" y="0px"
	 viewBox="0 0 512 335.4" style="enable-background:new 0 0 512 335.4;" xml:space="preserve">
<style type="text/css">
	.st0{fill:#FF4B55;}
	.st1{fill:#FFE15A;}
</style>
<path class="st0" d="M503.2,335.4H8.8c-4.9,0-8.8-4-8.8-8.8V8.8C0,4,4,0,8.8,0h494.3c4.9,0,8.8,4,8.8,8.8v317.8
	C512,331.5,508,335.4,503.2,335.4z"/>
<g>
	<path class="st1" d="M85,52.5l8.4,25.2l26.6,0.2c3.4,0,4.9,4.4,2.1,6.5l-21.4,15.8l8,25.4c1,3.3-2.7,6-5.5,4l-21.6-15.5L60,129.5
		c-2.8,2-6.5-0.7-5.5-4l8-25.4L41.1,84.4c-2.8-2-1.3-6.4,2.1-6.5l26.6-0.2l8.4-25.2C79.3,49.2,83.9,49.2,85,52.5z"/>
	<path class="st1" d="M181.6,58.7l6,8.2l9.7-3c1.3-0.4,2.3,1,1.5,2.1l-6,8.3l5.9,8.3c0.8,1.1-0.3,2.5-1.5,2.1l-9.7-3.1l-6.1,8.2
		c-0.8,1.1-2.5,0.5-2.5-0.8l0-10.2l-9.7-3.3c-1.3-0.4-1.2-2.2,0-2.6l9.7-3.2l0.1-10.2C179.1,58.2,180.8,57.6,181.6,58.7z"/>
	<path class="st1" d="M144.9,34.1l10.1,1.1l4.3-9.2c0.6-1.2,2.3-1,2.6,0.3l2.1,10l10.1,1.3c1.3,0.2,1.7,1.9,0.5,2.6l-8.9,5.1l1.9,10
		c0.2,1.3-1.3,2.2-2.3,1.3l-7.6-6.9l-8.9,4.9c-1.2,0.6-2.5-0.6-1.9-1.8l4.2-9.3l-7.5-7C142.8,35.6,143.5,34,144.9,34.1z"/>
	<path class="st1" d="M160.9,133l-6,8.2l-9.7-3c-1.3-0.4-2.3,1-1.5,2.1l6,8.3l-5.9,8.3c-0.8,1.1,0.3,2.5,1.5,2.1l9.7-3.1l6.1,8.2
		c0.8,1.1,2.5,0.5,2.5-0.8l0-10.2l9.7-3.3c1.3-0.4,1.2-2.2,0-2.6l-9.7-3.2l-0.1-10.2C163.4,132.5,161.7,132,160.9,133z"/>
	<path class="st1" d="M197.6,110l-10.1,1.1l-4.3-9.2c-0.6-1.2-2.3-1-2.6,0.3l-2.1,10l-10.1,1.3c-1.3,0.2-1.7,1.9-0.5,2.6l8.9,5.1
		l-1.9,10c-0.2,1.3,1.3,2.2,2.3,1.3l7.6-6.9l8.9,4.9c1.2,0.6,2.5-0.6,1.9-1.8l-4.2-9.3l7.5-7C199.7,111.5,198.9,109.8,197.6,110z"/>
</g>
</svg>
