<?xml version="1.0" encoding="UTF-8"?>
<svg width="64px" height="42px" viewBox="0 0 64 42" version="1.1" xmlns="http://www.w3.org/2000/svg" xmlns:xlink="http://www.w3.org/1999/xlink">
    <!-- Generator: Sketch 51.2 (57519) - http://www.bohemiancoding.com/sketch -->
    <title>flag/64x64/South Korea</title>
    <desc>Created with Sketch.</desc>
    <defs>
        <rect id="path-1" x="0" y="0" width="64" height="42" rx="4"></rect>
    </defs>
    <g id="flag/64x64/South-Korea" stroke="none" stroke-width="1" fill="none" fill-rule="evenodd">
        <mask id="mask-2" fill="white">
            <use xlink:href="#path-1"></use>
        </mask>
        <g id="Mask"></g>
        <g id="094-south-korea" mask="url(#mask-2)" fill-rule="nonzero">
            <path d="M62.7738947,41.965625 L1.10134893,41.965625 C0.493161793,41.965625 0,41.4715 0,40.862125 L0,1.138 C0,0.528625 0.493161793,0.0345 1.10134893,0.0345 L62.7740195,0.0345 C63.3822066,0.0345 63.8753684,0.528625 63.8753684,1.138 L63.8753684,40.862125 C63.8752437,41.471625 63.3820819,41.965625 62.7738947,41.965625 Z" id="Shape" fill="#F5F5F5"></path>
            <path d="M38.0518051,11.816625 C32.9913138,8.4365 26.1562885,9.818375 22.7848733,14.879875 C21.0938012,17.40625 21.7812086,20.839125 24.3112671,22.52925 C26.8394542,24.219375 30.2546589,23.533 31.9414893,20.99775 C33.6283197,18.462625 37.04577,17.78475 39.5738324,19.466 C42.1061365,21.156125 42.7871813,24.589 41.0979805,27.115375 C44.4716413,22.045375 43.1079298,15.196875 38.0518051,11.816625" id="Shape" fill="#FF4B55"></path>
            <path d="M22.7847485,14.88 C21.0936764,17.406375 21.7810838,20.83925 24.3111423,22.529375 C26.8393294,24.2195 30.2545341,23.533125 31.9413645,20.997875 C33.6281949,18.46275 37.0456452,17.784875 39.5737076,19.466125 C42.1060117,21.15625 42.7870565,24.589125 41.0978558,27.1155 C37.7286862,32.1945 30.8959064,33.559125 25.8354152,30.178875 C20.77954,26.798875 19.4112125,19.950375 22.7847485,14.88" id="Shape" fill="#41479B"></path>
            <g id="Group" transform="translate(10.729045, 4.500000)" fill="#464655">
                <path d="M32.925692,3.148875 L34.9261598,6.161625 C35.0942066,6.41475 35.0262144,6.7565 34.7740819,6.925625 L34.2668226,7.266 C34.013692,7.43575 33.6711111,7.3675 33.502191,7.1135 L31.4992281,4.1015 C31.3306823,3.848125 31.3990487,3.50575 31.6518051,3.336625 L32.1615595,2.995625 C32.4148148,2.82625 32.7570214,2.894875 32.925692,3.148875 Z" id="Shape"></path>
                <path d="M36.0121637,7.794 L38.0191189,10.804875 C38.188538,11.059125 38.1192982,11.403125 37.8647953,11.571625 L37.3552904,11.909 C37.1025341,12.0765 36.7621988,12.007625 36.5939025,11.75525 L34.5880702,8.7475 C34.4191501,8.49425 34.4870175,8.151625 34.7398986,7.98225 L35.2481559,7.64175 C35.501037,7.472375 35.8431189,7.5405 36.0121637,7.794 Z" id="Shape"></path>
                <path d="M35.0676335,1.716625 L40.1613099,9.37575 C40.3299805,9.62925 40.2614893,9.97175 40.0084834,10.14075 L39.4967329,10.4825 C39.2437271,10.651625 38.90177,10.583 38.7330994,10.3295 L33.6376764,2.670875 C33.4688811,2.41725 33.5374971,2.0745 33.7907524,1.905625 L34.3041248,1.56325 C34.5572554,1.394625 34.898963,1.463125 35.0676335,1.716625 Z" id="Shape"></path>
                <path d="M37.2037115,0.286625 L39.2085458,3.30525 C39.3774659,3.5595 39.3081014,3.90275 39.0537232,4.071125 L38.5439688,4.408625 C38.290963,4.576125 37.9505029,4.50725 37.7823314,4.254375 L35.776,1.23975 C35.6072047,0.98625 35.6756959,0.643625 35.9287018,0.474625 L36.440078,0.133125 C36.6929591,-0.036 37.0350409,0.032625 37.2037115,0.286625 Z" id="Shape"></path>
                <path d="M40.2921793,4.9415 L42.2938947,7.953875 C42.4623158,8.207125 42.3940741,8.549125 42.141692,8.71825 L41.6333099,9.05875 C41.3801793,9.228375 41.0375984,9.159875 40.8689279,8.905875 L38.8672125,5.8935 C38.6989162,5.64025 38.7670331,5.29825 39.0194152,5.129125 L39.5277973,4.788625 C39.7808031,4.619 40.123384,4.687375 40.2921793,4.9415 Z" id="Shape"></path>
                <path d="M5.82874074,21.247875 L10.9217934,28.89875 C11.0904639,29.152125 11.022347,29.494625 10.7693411,29.66375 L10.2593372,30.005 C10.0063314,30.17425 9.66437427,30.105875 9.49545419,29.85225 L4.40240156,22.201375 C4.23373099,21.948 4.30184795,21.6055 4.5548538,21.436375 L5.0648577,21.095125 C5.31786355,20.925875 5.65994542,20.994375 5.82874074,21.247875 Z" id="Shape"></path>
                <path d="M3.69054191,22.679 L5.69013645,25.684125 C5.85868226,25.937375 5.79069006,26.27925 5.53830799,26.448625 L5.03104873,26.788875 C4.77816764,26.9585 4.43583626,26.890375 4.26679142,26.63675 L2.26482651,23.632375 C2.09590643,23.379 2.16402339,23.036375 2.41702924,22.867125 L2.92678363,22.526125 C3.17966472,22.357 3.52174659,22.425375 3.69054191,22.679 Z" id="Shape"></path>
                <path d="M6.78063158,27.32575 L8.78247173,30.3385 C8.95089279,30.59175 8.88265107,30.933875 8.63001949,31.102875 L8.12126316,31.443625 C7.86813255,31.613125 7.52592593,31.54475 7.35700585,31.291 L5.35391813,28.278875 C5.18537232,28.0255 5.25373879,27.683125 5.50637037,27.514 L6.01637427,27.17275 C6.26962963,27.00325 6.61183626,27.071875 6.78063158,27.32575 Z" id="Shape"></path>
                <path d="M1.55221832,24.109625 L6.64202729,31.760875 C6.8105731,32.014125 6.74233138,32.356375 6.48994932,32.525625 L5.98131774,32.866375 C5.72831189,33.035875 5.38610526,32.967625 5.21718519,32.713875 L0.124382066,25.063625 C-0.0444132554,24.810125 0.0240779727,24.4675 0.277083821,24.298375 L0.788834308,23.956625 C1.04159064,23.787625 1.38354776,23.856125 1.55221832,24.109625 Z" id="Shape"></path>
                <path d="M4.4031501,10.805375 L9.49545419,3.14825 C9.66424951,2.8945 10.0063314,2.826 10.259462,2.99525 L10.7693411,3.336375 C11.0222222,3.5055 11.0903392,3.848 10.9217934,4.101375 L5.82749318,11.75425 C5.65907212,12.007125 5.31836257,12.075875 5.06548148,11.908125 L4.55759844,11.57125 C4.30334503,11.40275 4.23423002,11.059375 4.4031501,10.805375 Z" id="Shape"></path>
                <path d="M2.26395322,9.37625 L7.3571306,1.717625 C7.52592593,1.463875 7.86825731,1.395375 8.12138791,1.564875 L8.63001949,1.905625 C8.88252632,2.07475 8.95064327,2.41675 8.78222222,2.670125 L3.69041715,10.329125 C3.52162183,10.582875 3.17953996,10.6515 2.92640936,10.482125 L2.41640546,10.141 C2.16364912,9.972 2.09540741,9.629625 2.26395322,9.37625 Z" id="Shape"></path>
                <path d="M0.123508772,7.95325 L5.21718519,0.287 C5.38598051,0.033125 5.72843665,-0.0355 5.98156725,0.134 L6.49019883,0.47475 C6.74270565,0.643875 6.81082261,0.985625 6.64265107,1.239 L1.55209357,8.906375 C1.38354776,9.16025 1.04134113,9.229 0.788210526,9.059875 L0.276460039,8.718125 C0.0235789474,8.549125 -0.0447875244,8.20675 0.123508772,7.95325 Z" id="Shape"></path>
                <path d="M31.5001014,28.89875 L33.5020663,25.894375 C33.6711111,25.64075 34.0134425,25.572625 34.2663236,25.74225 L34.7735828,26.082625 C35.0259649,26.251875 35.0938324,26.593875 34.9254113,26.847125 L32.9258168,29.852125 C32.7570214,30.10575 32.4149396,30.17425 32.1619337,30.005 L31.6521793,29.664 C31.3992982,29.49475 31.3311813,29.15225 31.5001014,28.89875 Z" id="Shape"></path>
                <path d="M34.5878207,24.26775 L36.5930292,21.2485 C36.7616998,20.99475 37.1037817,20.926 37.3569123,21.095125 L37.8679142,21.436375 C38.1210448,21.6055 38.1894113,21.948375 38.0204912,22.201875 L36.0110409,25.216375 C35.8424951,25.46925 35.5017856,25.53775 35.2489045,25.36975 L34.7421442,25.03325 C34.4882651,24.864625 34.4191501,24.521625 34.5878207,24.26775 Z" id="Shape"></path>
                <path d="M33.6375517,30.337375 L35.6407641,27.325125 C35.8094347,27.0715 36.1513918,27.002875 36.4045224,27.172 L36.9165224,27.514125 C37.1694035,27.683125 37.23777,28.025375 37.0693489,28.279 L35.067384,31.2915 C34.8988382,31.545125 34.5571306,31.613875 34.3038752,31.445 L33.7905029,31.102625 C33.5374971,30.93375 33.4688811,30.591 33.6375517,30.337375 Z" id="Shape"></path>
                <path d="M36.7286394,25.683 L38.7329747,22.67775 C38.9018947,22.424625 39.2434776,22.356375 39.4963587,22.52525 L40.0081092,22.867 C40.2612398,23.036125 40.3296062,23.379 40.1604366,23.6325 L38.1562261,26.63775 C37.9874308,26.890875 37.6457232,26.959125 37.3929669,26.79025 L36.8810916,26.4485 C36.6277115,26.279625 36.5594698,25.936625 36.7286394,25.683 Z" id="Shape"></path>
                <path d="M35.776499,31.76025 L37.7819571,28.75325 C37.9503782,28.500875 38.2905887,28.432125 38.543345,28.5995 L39.0530994,28.937 C39.3074776,29.1055 39.3768421,29.449125 39.2076725,29.703375 L37.2037115,32.714375 C37.0350409,32.967875 36.6930838,33.03625 36.440078,32.867375 L35.9287018,32.525875 C35.6755712,32.356625 35.6073294,32.01375 35.776499,31.76025 Z" id="Shape"></path>
                <path d="M38.8683353,27.12125 L40.8688031,24.110625 C41.0375984,23.85675 41.3800546,23.788125 41.6331852,23.95775 L42.141193,24.298 C42.3938246,24.46725 42.4618168,24.809625 42.2931462,25.062875 L40.2909318,28.0695 C40.1226355,28.3225 39.7815517,28.391125 39.5286706,28.223125 L39.0221598,27.886875 C38.7685302,27.718375 38.69954,27.37525 38.8683353,27.12125 Z" id="Shape"></path>
            </g>
        </g>
    </g>
</svg>